<mxfile host="app.diagrams.net" modified="2023-10-09T06:50:15.642Z" agent="Mozilla/5.0 (X11; Linux x86_64) AppleWebKit/537.36 (KHTML, like Gecko) Chrome/117.0.0.0 Safari/537.36" etag="uLczevf249Wc1RWQm5IT" version="22.0.4" type="github">
  <diagram id="C5RBs43oDa-KdzZeNtuy" name="Page-1">
    <mxGraphModel dx="1532" dy="857" grid="1" gridSize="10" guides="1" tooltips="1" connect="1" arrows="1" fold="1" page="1" pageScale="1" pageWidth="1169" pageHeight="1654" math="0" shadow="0">
      <root>
        <mxCell id="WIyWlLk6GJQsqaUBKTNV-0" />
        <mxCell id="WIyWlLk6GJQsqaUBKTNV-1" parent="WIyWlLk6GJQsqaUBKTNV-0" />
        <mxCell id="WIyWlLk6GJQsqaUBKTNV-2" value="" style="rounded=0;html=1;jettySize=auto;orthogonalLoop=1;fontSize=11;endArrow=block;endFill=0;endSize=8;strokeWidth=1;shadow=0;labelBackgroundColor=none;edgeStyle=orthogonalEdgeStyle;" parent="WIyWlLk6GJQsqaUBKTNV-1" source="WIyWlLk6GJQsqaUBKTNV-3" target="WIyWlLk6GJQsqaUBKTNV-6" edge="1">
          <mxGeometry relative="1" as="geometry" />
        </mxCell>
        <mxCell id="WIyWlLk6GJQsqaUBKTNV-3" value="H264/H265" style="rounded=1;whiteSpace=wrap;html=1;fontSize=12;glass=0;strokeWidth=1;shadow=0;" parent="WIyWlLk6GJQsqaUBKTNV-1" vertex="1">
          <mxGeometry x="455" y="130" width="120" height="40" as="geometry" />
        </mxCell>
        <mxCell id="WIyWlLk6GJQsqaUBKTNV-5" value="No" style="edgeStyle=orthogonalEdgeStyle;rounded=0;html=1;jettySize=auto;orthogonalLoop=1;fontSize=11;endArrow=block;endFill=0;endSize=8;strokeWidth=1;shadow=0;labelBackgroundColor=none;" parent="WIyWlLk6GJQsqaUBKTNV-1" source="WIyWlLk6GJQsqaUBKTNV-6" target="WIyWlLk6GJQsqaUBKTNV-7" edge="1">
          <mxGeometry y="10" relative="1" as="geometry">
            <mxPoint as="offset" />
          </mxGeometry>
        </mxCell>
        <mxCell id="h_TKT6JKy_oNdBAGyFGm-25" value="" style="edgeStyle=orthogonalEdgeStyle;rounded=0;orthogonalLoop=1;jettySize=auto;html=1;" edge="1" parent="WIyWlLk6GJQsqaUBKTNV-1" source="WIyWlLk6GJQsqaUBKTNV-6" target="h_TKT6JKy_oNdBAGyFGm-24">
          <mxGeometry relative="1" as="geometry" />
        </mxCell>
        <mxCell id="h_TKT6JKy_oNdBAGyFGm-26" value="Yes&lt;br&gt;" style="edgeLabel;html=1;align=center;verticalAlign=middle;resizable=0;points=[];" vertex="1" connectable="0" parent="h_TKT6JKy_oNdBAGyFGm-25">
          <mxGeometry x="-0.025" y="-1" relative="1" as="geometry">
            <mxPoint as="offset" />
          </mxGeometry>
        </mxCell>
        <mxCell id="WIyWlLk6GJQsqaUBKTNV-6" value="Quyết định lưu trữ" style="rhombus;whiteSpace=wrap;html=1;shadow=0;fontFamily=Helvetica;fontSize=12;align=center;strokeWidth=1;spacing=6;spacingTop=-4;" parent="WIyWlLk6GJQsqaUBKTNV-1" vertex="1">
          <mxGeometry x="437.5" y="230" width="155" height="110" as="geometry" />
        </mxCell>
        <mxCell id="WIyWlLk6GJQsqaUBKTNV-7" value="Loop" style="rounded=1;whiteSpace=wrap;html=1;fontSize=12;glass=0;strokeWidth=1;shadow=0;" parent="WIyWlLk6GJQsqaUBKTNV-1" vertex="1">
          <mxGeometry x="675" y="265" width="120" height="40" as="geometry" />
        </mxCell>
        <mxCell id="h_TKT6JKy_oNdBAGyFGm-1" value="" style="endArrow=classic;html=1;curved=1;entryX=1;entryY=0.5;entryDx=0;entryDy=0;exitX=0.5;exitY=0;exitDx=0;exitDy=0;" edge="1" parent="WIyWlLk6GJQsqaUBKTNV-1" source="WIyWlLk6GJQsqaUBKTNV-7" target="WIyWlLk6GJQsqaUBKTNV-3">
          <mxGeometry width="50" height="50" relative="1" as="geometry">
            <mxPoint x="665" y="240" as="sourcePoint" />
            <mxPoint x="665" y="170" as="targetPoint" />
            <Array as="points">
              <mxPoint x="735" y="140" />
            </Array>
          </mxGeometry>
        </mxCell>
        <mxCell id="h_TKT6JKy_oNdBAGyFGm-6" value="&lt;div style=&quot;text-align: right;&quot;&gt;&lt;br&gt;&lt;/div&gt;" style="rounded=0;html=1;jettySize=auto;orthogonalLoop=1;fontSize=11;endArrow=block;endFill=0;endSize=8;strokeWidth=1;shadow=0;labelBackgroundColor=none;edgeStyle=orthogonalEdgeStyle;exitX=0.5;exitY=1;exitDx=0;exitDy=0;" edge="1" parent="WIyWlLk6GJQsqaUBKTNV-1" source="h_TKT6JKy_oNdBAGyFGm-8" target="h_TKT6JKy_oNdBAGyFGm-9">
          <mxGeometry x="0.3333" y="20" relative="1" as="geometry">
            <mxPoint as="offset" />
            <mxPoint x="520" y="790" as="sourcePoint" />
          </mxGeometry>
        </mxCell>
        <mxCell id="h_TKT6JKy_oNdBAGyFGm-16" value="Motion Record&lt;br&gt;" style="edgeLabel;html=1;align=center;verticalAlign=middle;resizable=0;points=[];" vertex="1" connectable="0" parent="h_TKT6JKy_oNdBAGyFGm-6">
          <mxGeometry x="-0.0095" y="-1" relative="1" as="geometry">
            <mxPoint as="offset" />
          </mxGeometry>
        </mxCell>
        <mxCell id="h_TKT6JKy_oNdBAGyFGm-7" value="Full Record" style="edgeStyle=orthogonalEdgeStyle;rounded=0;html=1;jettySize=auto;orthogonalLoop=1;fontSize=11;endArrow=block;endFill=0;endSize=8;strokeWidth=1;shadow=0;labelBackgroundColor=none;" edge="1" parent="WIyWlLk6GJQsqaUBKTNV-1" source="h_TKT6JKy_oNdBAGyFGm-8" target="h_TKT6JKy_oNdBAGyFGm-10">
          <mxGeometry y="10" relative="1" as="geometry">
            <mxPoint as="offset" />
          </mxGeometry>
        </mxCell>
        <mxCell id="h_TKT6JKy_oNdBAGyFGm-8" value="Cờ lưu trữ&lt;br&gt;(MOTION/FULL)" style="rhombus;whiteSpace=wrap;html=1;shadow=0;fontFamily=Helvetica;fontSize=12;align=center;strokeWidth=1;spacing=6;spacingTop=-4;" vertex="1" parent="WIyWlLk6GJQsqaUBKTNV-1">
          <mxGeometry x="447.5" y="690" width="135" height="90" as="geometry" />
        </mxCell>
        <mxCell id="h_TKT6JKy_oNdBAGyFGm-35" value="" style="edgeStyle=orthogonalEdgeStyle;rounded=0;orthogonalLoop=1;jettySize=auto;html=1;" edge="1" parent="WIyWlLk6GJQsqaUBKTNV-1" source="h_TKT6JKy_oNdBAGyFGm-9" target="h_TKT6JKy_oNdBAGyFGm-33">
          <mxGeometry relative="1" as="geometry" />
        </mxCell>
        <mxCell id="h_TKT6JKy_oNdBAGyFGm-9" value="Tạo folder Motion&lt;br&gt;(YYYY/MM/DD/MOTION)" style="rounded=1;whiteSpace=wrap;html=1;fontSize=12;glass=0;strokeWidth=1;shadow=0;" vertex="1" parent="WIyWlLk6GJQsqaUBKTNV-1">
          <mxGeometry x="407.5" y="863.25" width="215" height="70" as="geometry" />
        </mxCell>
        <mxCell id="h_TKT6JKy_oNdBAGyFGm-10" value="Tạo folder FULL&lt;br style=&quot;border-color: var(--border-color);&quot;&gt;(YYYY/MM/DD/FULL)" style="rounded=1;whiteSpace=wrap;html=1;fontSize=12;glass=0;strokeWidth=1;shadow=0;" vertex="1" parent="WIyWlLk6GJQsqaUBKTNV-1">
          <mxGeometry x="690" y="700" width="195" height="70" as="geometry" />
        </mxCell>
        <mxCell id="h_TKT6JKy_oNdBAGyFGm-19" value="" style="edgeStyle=orthogonalEdgeStyle;rounded=0;orthogonalLoop=1;jettySize=auto;html=1;" edge="1" parent="WIyWlLk6GJQsqaUBKTNV-1" source="h_TKT6JKy_oNdBAGyFGm-11" target="h_TKT6JKy_oNdBAGyFGm-8">
          <mxGeometry relative="1" as="geometry" />
        </mxCell>
        <mxCell id="h_TKT6JKy_oNdBAGyFGm-11" value="Tạo root folder&lt;br&gt;(YYYY/MM/DD)" style="rounded=0;whiteSpace=wrap;html=1;" vertex="1" parent="WIyWlLk6GJQsqaUBKTNV-1">
          <mxGeometry x="455" y="590" width="120" height="60" as="geometry" />
        </mxCell>
        <mxCell id="h_TKT6JKy_oNdBAGyFGm-23" value="" style="edgeStyle=orthogonalEdgeStyle;rounded=0;orthogonalLoop=1;jettySize=auto;html=1;" edge="1" parent="WIyWlLk6GJQsqaUBKTNV-1" target="h_TKT6JKy_oNdBAGyFGm-11">
          <mxGeometry relative="1" as="geometry">
            <mxPoint x="515" y="430" as="sourcePoint" />
          </mxGeometry>
        </mxCell>
        <mxCell id="h_TKT6JKy_oNdBAGyFGm-27" value="Yes" style="edgeLabel;html=1;align=center;verticalAlign=middle;resizable=0;points=[];" vertex="1" connectable="0" parent="h_TKT6JKy_oNdBAGyFGm-23">
          <mxGeometry x="0.2648" relative="1" as="geometry">
            <mxPoint as="offset" />
          </mxGeometry>
        </mxCell>
        <mxCell id="h_TKT6JKy_oNdBAGyFGm-30" value="" style="edgeStyle=orthogonalEdgeStyle;rounded=0;orthogonalLoop=1;jettySize=auto;html=1;" edge="1" parent="WIyWlLk6GJQsqaUBKTNV-1" source="h_TKT6JKy_oNdBAGyFGm-24" target="h_TKT6JKy_oNdBAGyFGm-29">
          <mxGeometry relative="1" as="geometry" />
        </mxCell>
        <mxCell id="h_TKT6JKy_oNdBAGyFGm-31" value="No" style="edgeLabel;html=1;align=center;verticalAlign=middle;resizable=0;points=[];" vertex="1" connectable="0" parent="h_TKT6JKy_oNdBAGyFGm-30">
          <mxGeometry x="-0.12" relative="1" as="geometry">
            <mxPoint as="offset" />
          </mxGeometry>
        </mxCell>
        <mxCell id="h_TKT6JKy_oNdBAGyFGm-24" value="Kiểm tra dung lượng" style="rhombus;whiteSpace=wrap;html=1;" vertex="1" parent="WIyWlLk6GJQsqaUBKTNV-1">
          <mxGeometry x="430" y="390" width="170" height="100" as="geometry" />
        </mxCell>
        <mxCell id="h_TKT6JKy_oNdBAGyFGm-29" value="Giải phóng dung lượng" style="rounded=1;whiteSpace=wrap;html=1;" vertex="1" parent="WIyWlLk6GJQsqaUBKTNV-1">
          <mxGeometry x="675" y="410" width="120" height="60" as="geometry" />
        </mxCell>
        <mxCell id="h_TKT6JKy_oNdBAGyFGm-32" value="" style="endArrow=classic;html=1;exitX=0.5;exitY=1;exitDx=0;exitDy=0;entryX=1;entryY=0.5;entryDx=0;entryDy=0;curved=1;" edge="1" parent="WIyWlLk6GJQsqaUBKTNV-1" source="h_TKT6JKy_oNdBAGyFGm-29" target="h_TKT6JKy_oNdBAGyFGm-11">
          <mxGeometry width="50" height="50" relative="1" as="geometry">
            <mxPoint x="685" y="750" as="sourcePoint" />
            <mxPoint x="735" y="700" as="targetPoint" />
            <Array as="points">
              <mxPoint x="745" y="620" />
            </Array>
          </mxGeometry>
        </mxCell>
        <mxCell id="h_TKT6JKy_oNdBAGyFGm-39" value="" style="edgeStyle=orthogonalEdgeStyle;rounded=0;orthogonalLoop=1;jettySize=auto;html=1;" edge="1" parent="WIyWlLk6GJQsqaUBKTNV-1" source="h_TKT6JKy_oNdBAGyFGm-33" target="h_TKT6JKy_oNdBAGyFGm-38">
          <mxGeometry relative="1" as="geometry" />
        </mxCell>
        <mxCell id="h_TKT6JKy_oNdBAGyFGm-33" value="Tạo file name&lt;br&gt;(YYYY/MM/DD/(MOTIO or FULL)/HH/mm_ss.mp4)" style="rounded=1;whiteSpace=wrap;html=1;" vertex="1" parent="WIyWlLk6GJQsqaUBKTNV-1">
          <mxGeometry x="321.25" y="973.25" width="387.5" height="96.75" as="geometry" />
        </mxCell>
        <mxCell id="h_TKT6JKy_oNdBAGyFGm-36" value="" style="endArrow=classic;html=1;exitX=0.5;exitY=1;exitDx=0;exitDy=0;entryX=1;entryY=0.5;entryDx=0;entryDy=0;curved=1;" edge="1" parent="WIyWlLk6GJQsqaUBKTNV-1" source="h_TKT6JKy_oNdBAGyFGm-10" target="h_TKT6JKy_oNdBAGyFGm-33">
          <mxGeometry width="50" height="50" relative="1" as="geometry">
            <mxPoint x="778.81" y="810" as="sourcePoint" />
            <mxPoint x="440" y="843.25" as="targetPoint" />
            <Array as="points">
              <mxPoint x="820" y="1010" />
            </Array>
          </mxGeometry>
        </mxCell>
        <mxCell id="h_TKT6JKy_oNdBAGyFGm-41" value="" style="edgeStyle=orthogonalEdgeStyle;rounded=0;orthogonalLoop=1;jettySize=auto;html=1;" edge="1" parent="WIyWlLk6GJQsqaUBKTNV-1" source="h_TKT6JKy_oNdBAGyFGm-38" target="h_TKT6JKy_oNdBAGyFGm-40">
          <mxGeometry relative="1" as="geometry" />
        </mxCell>
        <mxCell id="h_TKT6JKy_oNdBAGyFGm-38" value="Open/Write Data" style="rounded=1;whiteSpace=wrap;html=1;" vertex="1" parent="WIyWlLk6GJQsqaUBKTNV-1">
          <mxGeometry x="455" y="1130" width="120" height="60" as="geometry" />
        </mxCell>
        <mxCell id="h_TKT6JKy_oNdBAGyFGm-44" value="" style="edgeStyle=orthogonalEdgeStyle;orthogonalLoop=1;jettySize=auto;html=1;exitX=0;exitY=0.5;exitDx=0;exitDy=0;rounded=0;entryX=0;entryY=0.5;entryDx=0;entryDy=0;" edge="1" parent="WIyWlLk6GJQsqaUBKTNV-1" source="h_TKT6JKy_oNdBAGyFGm-40" target="WIyWlLk6GJQsqaUBKTNV-3">
          <mxGeometry relative="1" as="geometry">
            <mxPoint x="555" y="1330" as="sourcePoint" />
            <mxPoint x="400" y="150" as="targetPoint" />
            <Array as="points">
              <mxPoint x="270" y="1260" />
              <mxPoint x="270" y="150" />
            </Array>
          </mxGeometry>
        </mxCell>
        <mxCell id="h_TKT6JKy_oNdBAGyFGm-40" value="Close file" style="rounded=1;whiteSpace=wrap;html=1;" vertex="1" parent="WIyWlLk6GJQsqaUBKTNV-1">
          <mxGeometry x="455" y="1230" width="120" height="60" as="geometry" />
        </mxCell>
      </root>
    </mxGraphModel>
  </diagram>
</mxfile>
